<svg width="34" height="34" viewBox="0 0 34 34" fill="none" xmlns="http://www.w3.org/2000/svg">
<path d="M17.155 22.8825C20.5397 22.8825 23.2835 20.1515 23.2835 16.7828C23.2835 13.414 20.5397 10.6831 17.155 10.6831C13.7703 10.6831 11.0265 13.414 11.0265 16.7828C11.0265 20.1515 13.7703 22.8825 17.155 22.8825Z" stroke="#2D3831" stroke-width="2"/>
<path d="M21.7513 12.2081L27.8798 6.1084" stroke="#2D3831" stroke-width="2"/>
<path d="M6.43015 27.4571L12.5587 21.3574" stroke="#2D3831" stroke-width="2"/>
<path d="M12.5587 12.2081L6.43015 6.1084" stroke="#2D3831" stroke-width="2"/>
<path d="M27.8798 27.4571L21.7513 21.3574" stroke="#2D3831" stroke-width="2"/>
<path d="M13.1904 2.05034C15.7045 1.37759 18.425 1.3343 21.1205 2.05317C29.2939 4.23292 34.1443 12.5946 31.9543 20.7295C29.7643 28.8645 21.363 33.6921 13.1896 31.5123C5.01625 29.3326 0.165799 20.9709 2.35585 12.836C3.07812 10.1531 4.47599 7.82992 6.31844 5.99919" stroke="#2D3831" stroke-width="2" stroke-linecap="round"/>
</svg>
